<svg width="180" height="40" viewBox="0 0 180 40" fill="none" xmlns="http://www.w3.org/2000/svg">
  <path d="M20 5C11.7157 5 5 11.7157 5 20C5 28.2843 11.7157 35 20 35C28.2843 35 35 28.2843 35 20C35 11.7157 28.2843 5 20 5Z" stroke="#00D395" stroke-width="2"/>
  <path d="M20 10C14.4772 10 10 14.4772 10 20C10 25.5228 14.4772 30 20 30C25.5228 30 30 25.5228 30 20C30 14.4772 25.5228 10 20 10Z" fill="#00D395"/>
  <path d="M45 15V25H48V15H45Z" fill="white"/>
  <path d="M50 15V25H53V21H57V25H60V15H57V19H53V15H50Z" fill="white"/>
  <path d="M62 15V25H72V23H65V21H70V19H65V17H72V15H62Z" fill="white"/>
  <path d="M74 15V25H77V15H74Z" fill="white"/>
  <path d="M79 15V25H82V21H86V25H89V15H86V19H82V15H79Z" fill="white"/>
  <path d="M91 15V25H101V23H94V21H99V19H94V17H101V15H91Z" fill="white"/>
  <path d="M103 15V25H106V21H110V25H113V15H110V19H106V15H103Z" fill="white"/>
  <path d="M115 15V25H125V23H118V21H123V19H118V17H125V15H115Z" fill="white"/>
  <path d="M127 15V25H130V15H127Z" fill="white"/>
  <path d="M132 15V25H135V21H139V25H142V15H139V19H135V15H132Z" fill="white"/>
  <path d="M144 15V25H154V23H147V21H152V19H147V17H154V15H144Z" fill="white"/>
  <path d="M156 15V25H159V21H163V25H166V15H163V19H159V15H156Z" fill="white"/>
  <path d="M168 15V25H178V23H171V21H176V19H171V17H178V15H168Z" fill="white"/>
</svg> 